<svg width="24" height="24" viewBox="0 0 24 24" fill="none" xmlns="http://www.w3.org/2000/svg">
<g clip-path="url(#clip0_114_354)">
<circle cx="12" cy="12" r="12" fill="#FF0420"/>
<path d="M8.50259 15.1894C7.78806 15.1894 7.20263 15.0212 6.7463 14.685C6.29597 14.3427 6.0708 13.8564 6.0708 13.2259C6.0708 13.0938 6.08581 12.9317 6.11583 12.7396C6.19389 12.3072 6.30497 11.7879 6.44908 11.1814C6.85738 9.5302 7.91115 8.70459 9.6104 8.70459C10.0727 8.70459 10.487 8.78265 10.8533 8.93876C11.2196 9.08887 11.5078 9.31704 11.718 9.62327C11.9281 9.92349 12.0332 10.2838 12.0332 10.7041C12.0332 10.8302 12.0182 10.9893 11.9882 11.1814C11.8981 11.7158 11.79 12.2352 11.6639 12.7396C11.4538 13.5622 11.0905 14.1776 10.5741 14.5859C10.0577 14.9882 9.36722 15.1894 8.50259 15.1894ZM8.62868 13.8924C8.96493 13.8924 9.25014 13.7933 9.48431 13.5952C9.72449 13.397 9.89561 13.0938 9.99769 12.6855C10.1358 12.1211 10.2409 11.6287 10.3129 11.2084C10.3369 11.0823 10.3489 10.9532 10.3489 10.8211C10.3489 10.2747 10.0637 10.0015 9.49332 10.0015C9.15707 10.0015 8.86886 10.1006 8.62868 10.2988C8.39451 10.4969 8.22639 10.8001 8.12431 11.2084C8.01623 11.6107 7.90815 12.1031 7.80007 12.6855C7.77605 12.8056 7.76405 12.9317 7.76405 13.0638C7.76405 13.6162 8.05226 13.8924 8.62868 13.8924Z" fill="white"/>
<path d="M12.4467 15.0993C12.3807 15.0993 12.3296 15.0783 12.2936 15.0362C12.2636 14.9882 12.2546 14.9342 12.2666 14.8741L13.5095 9.01982C13.5215 8.95377 13.5545 8.89973 13.6086 8.8577C13.6626 8.81567 13.7197 8.79466 13.7797 8.79466H16.1755C16.8419 8.79466 17.3763 8.93276 17.7786 9.20896C18.1869 9.48516 18.3911 9.88446 18.3911 10.4068C18.3911 10.557 18.3731 10.7131 18.337 10.8752C18.1869 11.5657 17.8837 12.0761 17.4274 12.4063C16.977 12.7366 16.3586 12.9017 15.572 12.9017H14.3561L13.9418 14.8741C13.9298 14.9402 13.8968 14.9942 13.8427 15.0362C13.7887 15.0783 13.7317 15.0993 13.6716 15.0993H12.4467ZM15.6351 11.6588C15.8872 11.6588 16.1064 11.5897 16.2925 11.4516C16.4847 11.3135 16.6108 11.1154 16.6708 10.8572C16.6888 10.7551 16.6978 10.665 16.6978 10.587C16.6978 10.4128 16.6468 10.2807 16.5447 10.1907C16.4427 10.0946 16.2685 10.0466 16.0223 10.0466H14.9416L14.5993 11.6588H15.6351Z" fill="white"/>
</g>
<defs>
<clipPath id="clip0_114_354">
<rect width="24" height="24" fill="white"/>
</clipPath>
</defs>
</svg>