<svg width="24" height="24" viewBox="0 0 24 24" fill="none" xmlns="http://www.w3.org/2000/svg">
<g clip-path="url(#clip0_0_37)">
<circle cx="12" cy="12" r="12" fill="#FF0420"/>
<path d="M16.2098 9.63029V16.1719H13.5049V14.2455C13.5049 13.3991 12.8271 12.7129 11.9942 12.7129C11.1614 12.7129 10.4836 13.3991 10.4836 14.2455V16.1719H7.79004V9.63029H9.36642V10.5755C9.36642 10.98 9.69089 11.3071 10.0889 11.3071C10.487 11.3071 10.8114 10.98 10.8114 10.5755V9.63029H13.176V10.5715C13.176 10.976 13.5005 11.3031 13.8985 11.3031C14.2966 11.3031 14.621 10.976 14.621 10.5715V9.63029H16.2098Z" fill="#FBFCFE"/>
<path d="M11.6267 6.18214V10.2413H12.3296V8.42141C12.3296 8.42141 12.5092 8.04763 13.164 8.21251C14.0304 8.43072 15.0979 8.28285 15.7832 7.02799C13.7066 7.71997 13.651 5.34202 11.6267 6.18214Z" fill="#FBFCFE"/>
</g>
<defs>
<clipPath id="clip0_0_37">
<rect width="24" height="24" fill="white"/>
</clipPath>
</defs>
</svg>
