<svg width="40" height="40" viewBox="0 0 40 40" fill="none" xmlns="http://www.w3.org/2000/svg">
<g clip-path="url(#clip0_173_439)">
<path d="M31.667 31.2H33.067C33.5827 31.2 34.0003 31.6176 34.0003 32.1333V33.0666H24.667V32.1333C24.667 31.6176 25.0847 31.2 25.6003 31.2H30.7337H31.667Z" fill="#8962CF"/>
<path d="M33.0668 31.1999V30.2666C33.0668 29.7509 32.6491 29.3333 32.1334 29.3333H26.5334C26.0178 29.3333 25.6001 29.7509 25.6001 30.2666V31.1999H33.0668Z" fill="#8962CF"/>
<path d="M29.3337 6.93329H10.667V10.6666H29.3337V6.93329Z" fill="#8962CF"/>
<path d="M29.3337 9.73328H10.667V10.6666H29.3337V9.73328Z" fill="#8962CF"/>
<path d="M33.0667 14.4H6.93333L6 10.6666H34L33.0667 14.4Z" fill="#8962CF"/>
<path d="M32.1332 14.4H26.5332V29.3333H32.1332V14.4Z" fill="#8962CF"/>
<path d="M13 31.2H14.4C14.9157 31.2 15.3333 31.6176 15.3333 32.1333V33.0666H6V32.1333C6 31.6176 6.41767 31.2 6.93333 31.2H12.0667H13Z" fill="#8962CF"/>
<path d="M14.4003 31.1999V30.2666C14.4003 29.7509 13.9826 29.3333 13.4669 29.3333H7.86693C7.35126 29.3333 6.93359 29.7509 6.93359 30.2666V31.1999H14.4003Z" fill="#8962CF"/>
<path d="M13.4667 14.4H7.8667V29.3333H13.4667V14.4Z" fill="#8962CF"/>
<path d="M13.4668 21.792C13.4668 18.1837 16.3919 15.2587 20.0001 15.2587C23.6084 15.2587 26.5335 18.1837 26.5335 21.792V12.4587H13.4668V21.792Z" fill="#8962CF"/>
</g>
<defs>
<clipPath id="clip0_173_439">
<rect width="28" height="26.1333" fill="white" transform="translate(6 6.93335)"/>
</clipPath>
</defs>
</svg>
