<svg width="11" height="11" viewBox="0 0 11 11" fill="none" xmlns="http://www.w3.org/2000/svg">
<mask id="path-1-inside-1_301_897" fill="white">
<path d="M9.3365 2.84518L2.16435 10.0173L0.98584 8.83883L8.158 1.66667H1.83652V0H11.0032V9.16667H9.3365V2.84518Z"/>
</mask>
<path d="M9.3365 2.84518L2.16435 10.0173L0.98584 8.83883L8.158 1.66667H1.83652V0H11.0032V9.16667H9.3365V2.84518Z" fill="#404454"/>
<path d="M9.3365 2.84518H11.0065V-1.18656L8.15563 1.66431L9.3365 2.84518ZM2.16435 10.0173L0.983484 11.1982L2.16435 12.3791L3.34522 11.1982L2.16435 10.0173ZM0.98584 8.83883L-0.195029 7.65797L-1.3759 8.83884L-0.195024 10.0197L0.98584 8.83883ZM8.158 1.66667L9.33887 2.84753L12.1897 -0.00333333H8.158V1.66667ZM1.83652 1.66667H0.166523V3.33667H1.83652V1.66667ZM1.83652 0V-1.67H0.166523V0H1.83652ZM11.0032 0H12.6732V-1.67H11.0032V0ZM11.0032 9.16667V10.8367H12.6732V9.16667H11.0032ZM9.3365 9.16667H7.6665V10.8367H9.3365V9.16667ZM8.15563 1.66431L0.983479 8.83646L3.34522 11.1982L10.5174 4.02604L8.15563 1.66431ZM3.34521 8.83646L2.1667 7.65796L-0.195024 10.0197L0.983484 11.1982L3.34521 8.83646ZM2.16671 10.0197L9.33887 2.84753L6.97713 0.485799L-0.195029 7.65797L2.16671 10.0197ZM8.158 -0.00333333H1.83652V3.33667H8.158V-0.00333333ZM3.50652 1.66667V0H0.166523V1.66667H3.50652ZM1.83652 1.67H11.0032V-1.67H1.83652V1.67ZM9.33316 0V9.16667H12.6732V0H9.33316ZM11.0032 7.49667H9.3365V10.8367H11.0032V7.49667ZM11.0065 9.16667V2.84518H7.6665V9.16667H11.0065Z" fill="#404454" mask="url(#path-1-inside-1_301_897)"/>
</svg>
