<svg width="40" height="40" viewBox="0 0 40 40" fill="none" xmlns="http://www.w3.org/2000/svg">
<g clip-path="url(#clip0_50_36759)">
<path d="M32.6875 13.5C32.6875 13.8125 32.6875 14.0625 32.6875 14.375C32.6875 23.0625 26.125 33 14.0625 33C10.3125 33 6.875 31.9375 4 30.0625C4.5 30.125 5 30.1875 5.5625 30.1875C8.625 30.1875 11.4375 29.125 13.6875 27.375C10.8125 27.3125 8.375 25.4375 7.5625 22.8125C8 22.875 8.375 22.9375 8.8125 22.9375C9.375 22.9375 10 22.8125 10.5 22.6875C7.5 22.0625 5.25 19.4375 5.25 16.25V16.1875C6.125 16.6875 7.1875 16.9375 8.25 17C6.4375 15.8125 5.3125 13.8125 5.3125 11.5625C5.3125 10.3125 5.625 9.1875 6.1875 8.25C9.4375 12.1875 14.3125 14.8125 19.75 15.125C19.625 14.625 19.5625 14.125 19.5625 13.625C19.5625 10 22.5 7.0625 26.125 7.0625C28 7.0625 29.6875 7.8125 30.9375 9.125C32.375 8.8125 33.8125 8.25 35.0625 7.5C34.5625 9.0625 33.5625 10.3125 32.1875 11.125C33.5 11 34.8125 10.625 35.9375 10.125C35.0625 11.4375 33.9375 12.5625 32.6875 13.5Z" fill="#1DA1F2"/>
</g>
<defs>
<clipPath id="clip0_50_36759">
<rect width="40" height="40" fill="white"/>
</clipPath>
</defs>
</svg>
